<mxfile host="app.diagrams.net" modified="2022-11-16T08:50:33.886Z" agent="5.0 (Windows NT 10.0; Win64; x64) AppleWebKit/537.36 (KHTML, like Gecko) Chrome/107.0.0.0 Safari/537.36" etag="vbXU9uBgcN8fcJTME3YR" version="20.5.3" type="github">
  <diagram name="Page-1" id="c37626ed-c26b-45fb-9056-f9ebc6bb27b6">
    <mxGraphModel dx="1422" dy="762" grid="1" gridSize="10" guides="1" tooltips="1" connect="1" arrows="1" fold="1" page="1" pageScale="1" pageWidth="1100" pageHeight="850" background="none" math="0" shadow="0">
      <root>
        <mxCell id="0" />
        <mxCell id="1" parent="0" />
        <mxCell id="RWqoNzYFDpSBMW1jiFQ8-14" style="edgeStyle=orthogonalEdgeStyle;rounded=0;orthogonalLoop=1;jettySize=auto;html=1;entryX=0.9;entryY=1;entryDx=0;entryDy=0;entryPerimeter=0;fontSize=14;" edge="1" parent="1" target="RWqoNzYFDpSBMW1jiFQ8-6">
          <mxGeometry relative="1" as="geometry">
            <mxPoint x="410" y="255" as="sourcePoint" />
            <mxPoint x="260" y="465" as="targetPoint" />
          </mxGeometry>
        </mxCell>
        <mxCell id="RWqoNzYFDpSBMW1jiFQ8-17" value="ether10" style="edgeLabel;html=1;align=center;verticalAlign=middle;resizable=0;points=[];fontSize=14;" vertex="1" connectable="0" parent="RWqoNzYFDpSBMW1jiFQ8-14">
          <mxGeometry x="-0.9013" y="-1" relative="1" as="geometry">
            <mxPoint as="offset" />
          </mxGeometry>
        </mxCell>
        <mxCell id="RWqoNzYFDpSBMW1jiFQ8-18" value="ether24" style="edgeLabel;html=1;align=center;verticalAlign=middle;resizable=0;points=[];fontSize=14;" vertex="1" connectable="0" parent="RWqoNzYFDpSBMW1jiFQ8-14">
          <mxGeometry x="0.832" y="2" relative="1" as="geometry">
            <mxPoint as="offset" />
          </mxGeometry>
        </mxCell>
        <mxCell id="RWqoNzYFDpSBMW1jiFQ8-1" value="" style="fontColor=#0066CC;verticalAlign=top;verticalLabelPosition=bottom;labelPosition=center;align=center;html=1;outlineConnect=0;fillColor=#CCCCCC;strokeColor=#6881B3;gradientColor=none;gradientDirection=north;strokeWidth=2;shape=mxgraph.networks.router;" vertex="1" parent="1">
          <mxGeometry x="420" y="230" width="140" height="45" as="geometry" />
        </mxCell>
        <mxCell id="RWqoNzYFDpSBMW1jiFQ8-2" value="&lt;font style=&quot;font-size: 14px;&quot;&gt;NGS-MT-RB3011 - gateway 192.168.11.158/24 192.168.12.1/24&lt;br&gt;VLAN11-192.168.11.0/24&lt;br&gt;VLAN12 - 192.168.12.0/24&lt;br&gt;ether1: WAN Provider&lt;br&gt;ether2-9 VLAN11&lt;br&gt;ether10: TRUNK VLAN11/12 to NGS-MT-SW01&lt;/font&gt;" style="text;html=1;resizable=0;autosize=1;align=center;verticalAlign=middle;points=[];fillColor=none;strokeColor=none;rounded=0;" vertex="1" parent="1">
          <mxGeometry x="280" y="110" width="420" height="110" as="geometry" />
        </mxCell>
        <mxCell id="RWqoNzYFDpSBMW1jiFQ8-25" style="edgeStyle=orthogonalEdgeStyle;rounded=0;orthogonalLoop=1;jettySize=auto;html=1;exitX=0.1;exitY=1;exitDx=0;exitDy=0;exitPerimeter=0;fontSize=14;" edge="1" parent="1" source="RWqoNzYFDpSBMW1jiFQ8-6" target="RWqoNzYFDpSBMW1jiFQ8-7">
          <mxGeometry relative="1" as="geometry">
            <mxPoint x="520" y="590" as="targetPoint" />
            <Array as="points">
              <mxPoint x="190" y="528" />
              <mxPoint x="580" y="528" />
            </Array>
          </mxGeometry>
        </mxCell>
        <mxCell id="RWqoNzYFDpSBMW1jiFQ8-26" value="ether1" style="edgeLabel;html=1;align=center;verticalAlign=middle;resizable=0;points=[];fontSize=14;" vertex="1" connectable="0" parent="RWqoNzYFDpSBMW1jiFQ8-25">
          <mxGeometry x="-0.9246" y="-4" relative="1" as="geometry">
            <mxPoint as="offset" />
          </mxGeometry>
        </mxCell>
        <mxCell id="RWqoNzYFDpSBMW1jiFQ8-27" value="ether24" style="edgeLabel;html=1;align=center;verticalAlign=middle;resizable=0;points=[];fontSize=14;" vertex="1" connectable="0" parent="RWqoNzYFDpSBMW1jiFQ8-25">
          <mxGeometry x="0.9379" y="4" relative="1" as="geometry">
            <mxPoint x="34" y="-1" as="offset" />
          </mxGeometry>
        </mxCell>
        <mxCell id="RWqoNzYFDpSBMW1jiFQ8-36" style="edgeStyle=orthogonalEdgeStyle;rounded=0;orthogonalLoop=1;jettySize=auto;html=1;exitX=0.5;exitY=1;exitDx=0;exitDy=0;exitPerimeter=0;entryX=0.18;entryY=0;entryDx=0;entryDy=0;entryPerimeter=0;fontSize=14;" edge="1" parent="1" source="RWqoNzYFDpSBMW1jiFQ8-6" target="RWqoNzYFDpSBMW1jiFQ8-35">
          <mxGeometry relative="1" as="geometry" />
        </mxCell>
        <mxCell id="RWqoNzYFDpSBMW1jiFQ8-6" value="" style="fontColor=#0066CC;verticalAlign=top;verticalLabelPosition=bottom;labelPosition=center;align=center;html=1;outlineConnect=0;fillColor=#CCCCCC;strokeColor=#6881B3;gradientColor=none;gradientDirection=north;strokeWidth=2;shape=mxgraph.networks.switch;" vertex="1" parent="1">
          <mxGeometry x="180" y="435" width="100" height="30" as="geometry" />
        </mxCell>
        <mxCell id="RWqoNzYFDpSBMW1jiFQ8-32" style="edgeStyle=orthogonalEdgeStyle;rounded=0;orthogonalLoop=1;jettySize=auto;html=1;exitX=0.1;exitY=1;exitDx=0;exitDy=0;exitPerimeter=0;fontSize=14;" edge="1" parent="1" source="RWqoNzYFDpSBMW1jiFQ8-7" target="RWqoNzYFDpSBMW1jiFQ8-31">
          <mxGeometry relative="1" as="geometry">
            <Array as="points">
              <mxPoint x="500" y="540" />
              <mxPoint x="920" y="540" />
            </Array>
          </mxGeometry>
        </mxCell>
        <mxCell id="RWqoNzYFDpSBMW1jiFQ8-7" value="" style="fontColor=#0066CC;verticalAlign=top;verticalLabelPosition=bottom;labelPosition=center;align=center;html=1;outlineConnect=0;fillColor=#CCCCCC;strokeColor=#6881B3;gradientColor=none;gradientDirection=north;strokeWidth=2;shape=mxgraph.networks.switch;" vertex="1" parent="1">
          <mxGeometry x="490" y="435" width="100" height="30" as="geometry" />
        </mxCell>
        <mxCell id="RWqoNzYFDpSBMW1jiFQ8-9" value="&lt;font style=&quot;font-size: 14px;&quot;&gt;NGS-MT-SW01 - 192.168.11.201/24&lt;br&gt;VLAN11-192.168.11.0/24&lt;br&gt;VLAN12 - 192.168.12.0/24&lt;br&gt;VLAN11: ether2-15&lt;br&gt;VLAN12: ether16-ether23&lt;br&gt;&lt;br&gt;ether1: TRUNK VLAN11/12 to NGS-MT-SW-02&lt;br&gt;ehter24: TRUNK VLAN11/12 FROM NGS-MT-RB3011&lt;/font&gt;" style="text;html=1;resizable=0;autosize=1;align=center;verticalAlign=middle;points=[];fillColor=none;strokeColor=none;rounded=0;" vertex="1" parent="1">
          <mxGeometry x="40" y="295" width="360" height="150" as="geometry" />
        </mxCell>
        <mxCell id="RWqoNzYFDpSBMW1jiFQ8-19" value="NGS-MT-SW02 - 192.168.11.202/24&lt;br&gt;VLAN11/12&lt;br&gt;ether24: TRUNK FROM NGS-MT-SW01&lt;br&gt;ether1: TRUNK TO NGS-MT-SW03" style="text;html=1;resizable=0;autosize=1;align=center;verticalAlign=middle;points=[];fillColor=none;strokeColor=none;rounded=0;fontSize=14;" vertex="1" parent="1">
          <mxGeometry x="415" y="355" width="270" height="80" as="geometry" />
        </mxCell>
        <mxCell id="RWqoNzYFDpSBMW1jiFQ8-20" value="NGS-MT-SW03 - 192.168.11.203/24&lt;br&gt;VLAN11/12&lt;br&gt;ether24: TRUNK FROM NGS-MT-SW02" style="text;html=1;align=center;verticalAlign=middle;resizable=0;points=[];autosize=1;strokeColor=none;fillColor=none;fontSize=14;" vertex="1" parent="1">
          <mxGeometry x="760" y="365" width="270" height="60" as="geometry" />
        </mxCell>
        <mxCell id="RWqoNzYFDpSBMW1jiFQ8-31" value="" style="fontColor=#0066CC;verticalAlign=top;verticalLabelPosition=bottom;labelPosition=center;align=center;html=1;outlineConnect=0;fillColor=#CCCCCC;strokeColor=#6881B3;gradientColor=none;gradientDirection=north;strokeWidth=2;shape=mxgraph.networks.switch;fontSize=14;" vertex="1" parent="1">
          <mxGeometry x="830" y="435" width="100" height="30" as="geometry" />
        </mxCell>
        <mxCell id="RWqoNzYFDpSBMW1jiFQ8-33" value="ether1" style="text;html=1;align=center;verticalAlign=middle;resizable=0;points=[];autosize=1;strokeColor=none;fillColor=none;fontSize=14;" vertex="1" parent="1">
          <mxGeometry x="450" y="455" width="60" height="30" as="geometry" />
        </mxCell>
        <mxCell id="RWqoNzYFDpSBMW1jiFQ8-34" value="ether24" style="text;html=1;align=center;verticalAlign=middle;resizable=0;points=[];autosize=1;strokeColor=none;fillColor=none;fontSize=14;" vertex="1" parent="1">
          <mxGeometry x="875" y="455" width="70" height="30" as="geometry" />
        </mxCell>
        <mxCell id="RWqoNzYFDpSBMW1jiFQ8-35" value="Hub для камер, скуд" style="fontColor=#0066CC;verticalAlign=top;verticalLabelPosition=bottom;labelPosition=center;align=center;html=1;outlineConnect=0;fillColor=#CCCCCC;strokeColor=#6881B3;gradientColor=none;gradientDirection=north;strokeWidth=2;shape=mxgraph.networks.hub;fontSize=14;" vertex="1" parent="1">
          <mxGeometry x="70" y="580" width="100" height="30" as="geometry" />
        </mxCell>
        <mxCell id="RWqoNzYFDpSBMW1jiFQ8-37" value="ether2" style="text;html=1;align=center;verticalAlign=middle;resizable=0;points=[];autosize=1;strokeColor=none;fillColor=none;fontSize=14;" vertex="1" parent="1">
          <mxGeometry x="220" y="500" width="60" height="30" as="geometry" />
        </mxCell>
      </root>
    </mxGraphModel>
  </diagram>
</mxfile>
